<svg xmlns="http://www.w3.org/2000/svg" width="500" height="500" viewBox="0 0 500 500">
  <defs>
    <style>
      .cls-1 {
        fill: #fc4c02;
      }
    </style>
  </defs>
  <title>Team_Logos</title>
  <g id="SF">
    <g>
      <path class="cls-1" d="M420,82H79.61C67.28,82,57.5,91.3,57.5,103.64V276.05H191.37a3.6,3.6,0,0,0,2.12-.69,6.49,6.49,0,0,0,2.83-5.56,6.56,6.56,0,0,0-2.59-5.4l0,0-78.65-23.21c-17.53-4.55-27.45-15.73-31.39-32.82a90.53,90.53,0,0,1,.78-43.86c4.76-17.74,18.29-28.72,35.69-29.34l322.37.09V103.64C442.5,91.3,432.37,82,420,82Z"/>
      <path class="cls-1" d="M323.5,209.4h85.4v46.2H323.5v67.2H263.3V181.3h-117c-2.87,0-5.2,2.8-5.2,6.26a6.53,6.53,0,0,0,2.72,5.5c2.2,1.79,5.29,2.73,8.13,3.51,22.3,6.13,44.66,12,67,18.2C245.49,222.12,257.35,232,258,261c.26,11.17-.22,22.77-2.46,33.76-3.44,16.92-16.69,28.09-36.45,28.09,0,0-105.61,0-161.61-.05v75s0,13.78,9.8,16.85V395.77l2.8-12.42,2.8,12.42V417a18,18,0,0,0,5.68,1H82.7V397.15l3.5-21.72,3.5,21.72V418h11.2V392.64l2.8-19.47,2.8,19.47V418h9.8V387.14l3.5-18.32,3.5,18.32V418h9.8V381.92l3.5-18,3.5,18V418h9.8V361l2.8-21.72L155.5,361v57h11.2V361l3.5-21.72L173.7,361v57h9.8V381.92l2.8-18,2.8,18V418h9.8V387.14l3.5-18.32,3.5,18.32V418h9.8V392.64l3.5-19.47,3.5,19.47V418h9.8V397.15l3.5-21.72,3.5,21.72V418h9.8V395.77l3.5-12.42,3.5,12.42V418h8.4V398.9l3.5-10.08,3.5,10.08V418h8.4V401.1l3.5-8.4,3.5,8.4V418h9.8V402l2.8-14.69L302.5,402v16h11.2V399l3.5-13.17L320.7,399v19h9.8V395.26l2.8-12.39,2.8,12.39V418h9.8V391.74l3.5-12.18,3.5,12.18V418h9.8V377.56l3.5-14.69,3.5,14.69V418h9.8V377.56l3.5-14.69,3.5,14.69V418h9.8V391.74l3.5-12.18,3.5,12.18V418h9.8V395.26l2.8-12.39,2.8,12.39V418h1.65a21.81,21.81,0,0,0,8.15-1.61V399l3.5-13.17L435.5,399v13.37a21.72,21.72,0,0,0,7-16V181.3h-119Z"/>
    </g>
  </g>
</svg>
