<svg xmlns="http://www.w3.org/2000/svg" width="500" height="500" viewBox="0 0 500 500">
  <defs>
    <style>
      .cls-1 {
        fill: #fff;
      }

      .cls-2 {
        fill: #ac8a00;
      }
    </style>
  </defs>
  <title>Team_Logos</title>
  <g id="seoul">
    <g>
      <polygon points="422.25 138.29 428.89 72.2 408.86 54.3 347.02 58.27 316.63 43.53 183.37 43.53 152.97 58.27 91.14 54.3 71.11 72.2 77.75 138.29 40 234.39 60.57 229.38 78.21 345.83 96.42 332.31 159.28 413.38 164.97 389.47 175.22 393.79 189.34 445.26 217.8 437.52 250 472.47 250 472.47 250 472.47 282.2 437.52 310.66 445.26 324.78 393.79 335.03 389.47 340.72 413.38 403.57 332.31 421.79 345.83 439.43 229.38 460 234.39 422.25 138.29"/>
      <polygon class="cls-1" points="86.47 77.91 92.94 139.73 61.17 214.45 72.49 212.28 88.37 318.53 97.16 309.39 153.03 378.63 153.34 352.66 103.32 294.17 90.61 207.64 126.78 125.91 89.93 79.58 86.47 77.91"/>
      <polygon class="cls-1" points="163.71 229.9 168.97 250.93 208.14 266.06 201.01 244.7 163.71 229.9"/>
      <path class="cls-2" d="M413.39,75.85l-8.63-7.42L343.47,74l-36.6-16.66H193L156.4,74,95.11,68.43l-8.63,7.42v2.07l50.73,24.44L90.61,207.64l12.71,86.53,50,58.49V326.24l-36.51-42.56L107.35,208,133,150l28.44-17.14L134.58,198l79.27,31.26,11.29,42.15-9.08,22.19-3.63-12.1-56.88-22.59-8.47-33.08-19.56-8.47L135,279l24.2,21.38,18.35-12.3v57.71l37.72,39.91,26.83-9.28-30.66-27.63V321.4l38.5,35.5h0l38.5-35.5v27.43l-30.66,27.63,26.83,9.28,37.72-39.91V288.12l18.35,12.3L364.88,279l7.46-61.72-19.56,8.47-8.47,33.08-56.88,22.59-3.63,12.1-9.08-22.19L286,229.22,365.28,198l-26.83-65.15L366.9,150,392.51,208,383,283.68l-36.51,42.56v26.42l50-58.49,12.71-86.53L362.66,102.36l50.73-24.44ZM261,175.83l-11.12,25.25-11.12-25.25-65.42-24.77L189.75,139l42.88,17.31L229.76,139l-43.83-17,14.93-11.12L229.45,122l-2.86-16.67L198.8,94.53l12.86-10.8,38.27,13h0l38.27-13,12.86,10.8-27.79,10.8L270.42,122,299,110.88,313.93,122,270.1,139l-2.86,17.31L310.12,139l16.36,12.07Z"/>
      <polygon class="cls-1" points="413.39 77.91 406.93 139.73 438.69 214.45 427.38 212.28 411.5 318.53 402.7 309.39 346.84 378.63 346.53 352.66 396.55 294.17 409.26 207.64 373.09 125.91 409.94 79.58 413.39 77.91"/>
      <polygon class="cls-1" points="336.16 229.9 330.9 250.93 291.73 266.06 298.86 244.7 336.16 229.9"/>
      <polygon class="cls-1" points="289.26 409.35 249.93 395.71 210.61 409.35 184.92 382.94 198.85 430.97 222.8 425.75 249.94 454.17 277.07 425.75 301.02 430.97 314.95 382.94 289.26 409.35"/>
    </g>
  </g>
</svg>
