<svg id="london" xmlns="http://www.w3.org/2000/svg" width="500" height="500" viewBox="0 0 500 500">
  <defs>
    <style>
      .cls-1 {
        fill: #1c2b39;
      }

      .cls-2 {
        fill: #59cbe8;
      }

      .cls-3 {
        fill: #ff8200;
      }

      .cls-4 {
        fill: #fff;
      }
    </style>
  </defs>
  <title>Team_Logos</title>
  <g>
    <path class="cls-1" d="M180.68,377.29c20.63,23.33,44,42.61,69.36,56.68,25.31-14,48.67-33.26,69.27-56.47a682,682,0,0,0-138.63-.21Z"/>
    <path class="cls-1" d="M425.67,212.32c10.41-45.36,13.85-89.9,10.7-131.85l-.21-1.56-.56-.37C388.71,54.69,322.87,39.77,249.22,39.77S110.67,54.65,63.78,78.44l-.12,2A441.9,441.9,0,0,0,74.11,212.24c26.84,116.95,95.18,210.05,175.65,254C330.24,422.3,398.84,329.27,425.67,212.32ZM251.17,439.77l-1.38.75-1.38-.75c-35.38-19.32-68.17-49.57-94.83-87.48-27.48-39.09-48-85.85-59.32-135.23a386.62,386.62,0,0,1-9.15-115.43l.19-3.36,1.47-.75c43.14-21.88,100.86-33.94,162.53-33.94,62.21,0,120.22,12.08,163.36,34l.28.16,1.58,1,.38,2.82c2.8,37.34-.35,76.19-9.37,115.5-11.32,49.34-31.88,96.1-59.44,135.2C319.41,390.2,286.59,420.44,251.17,439.77Z"/>
    <path class="cls-2" d="M404.66,179.08c-42.32-16.72-96.18-26.79-155.33-26.79-58.17,0-110.73,9.73-152.55,26-1.15.45-2.29.9-3.42,1.36.22,1.6.45,3.2.69,4.81q2.31,15.66,5.89,31.36a400.06,400.06,0,0,0,19.5,61.72q3.72,9.11,7.85,17.91a344.72,344.72,0,0,0,53.22,81.89,682,682,0,0,1,138.63.21,344.35,344.35,0,0,0,53.48-82q4.15-8.82,7.89-18A398.31,398.31,0,0,0,400,215.84q3.93-17.12,6.34-34.1c.09-.62.19-1.25.27-1.87Z"/>
    <path class="cls-3" d="M414.91,101.62l-.38-2.82-1.58-1-.28-.16c-43.14-21.94-101.16-34-163.36-34-61.68,0-119.4,12.05-162.53,33.94l-1.47.75-.19,3.36a386.62,386.62,0,0,0,9.15,115.43c11.33,49.38,31.85,96.15,59.32,135.23,26.65,37.91,59.44,68.16,94.83,87.48l1.38.75,1.38-.75c35.42-19.34,68.25-49.57,94.93-87.45,27.56-39.11,48.11-85.86,59.44-135.2C414.56,177.82,417.71,139,414.91,101.62Zm-8.32,78,0,.29c-.09.62-.19,1.25-.27,1.87q-2.42,17-6.34,34.1a398.31,398.31,0,0,1-19.51,61.7q-3.74,9.13-7.89,18a344.35,344.35,0,0,1-53.48,82c-20.61,23.22-44,42.43-69.27,56.47-25.35-14.07-48.73-33.35-69.36-56.68a344.72,344.72,0,0,1-53.22-81.89q-4.13-8.8-7.85-17.91a400.06,400.06,0,0,1-19.5-61.72q-3.6-15.69-5.89-31.36c-.24-1.6-.48-3.2-.69-4.81,0-.17,0-.33-.06-.5A372,372,0,0,1,90.85,102v-.11c42.19-21,98.37-32.58,158.46-32.58,60.9,0,117.63,11.7,159.89,33A368,368,0,0,1,406.6,179.58Z"/>
    <path class="cls-4" d="M409.2,102.28c-42.26-21.26-99-33-159.89-33C189.23,69.32,133,80.88,90.85,101.9V102a372,372,0,0,0,2.37,77.1c0,.17,0,.33.06.5,1.13-.46,2.27-.91,3.42-1.36,41.82-16.23,94.38-26,152.55-26,59.15,0,113,10.07,155.33,26.79l2,.79,0-.29A368,368,0,0,0,409.2,102.28Z"/>
    <path class="cls-3" d="M268,254.39a18,18,0,1,0-18,17.84A17.89,17.89,0,0,0,268,254.39Z"/>
    <g>
      <polygon class="cls-1" points="305.41 233.52 357.57 231.57 357.57 229.17 315.91 227.61 305.41 233.52"/>
      <polygon class="cls-1" points="184.84 227.58 142.4 229.17 142.4 231.57 195.53 233.56 184.84 227.58"/>
      <path class="cls-1" d="M301.28,282.32c-14.1.89-14.15,1.21-23.51-9.3a10.79,10.79,0,0,1-2.29-5.73,92.23,92.23,0,0,1-.84-10.07v-.49l4.48-3v-6.09l-8,4.83c.05.64.39,1.28.38,1.94s.1,1.32,0,2c0,.2,0,.4,0,.6-.06.46-.09.91-.18,1.36,0,.21-.06.42-.11.63-.11.48-.23,1-.37,1.42,0,.14-.07.29-.12.44q-.28.86-.63,1.69c-.09.22-.2.44-.3.66s-.32.67-.49,1-.27.5-.41.75-.33.55-.51.83-.32.51-.49.76-.35.47-.53.7q-.56.74-1.19,1.43l-.41.45c-.28.29-.56.57-.86.84l-.37.34a21.57,21.57,0,0,1-4.89,3.28l-.25.12c-.44.21-.89.4-1.34.58h0l1.9,34.56,30.78-4q27.76-3,55.5-6.26l26.36-3.08q4.15-8.82,7.89-18C354.12,279.1,327.7,280.65,301.28,282.32ZM352.59,296h0a5.2,5.2,0,0,1-2.72-.89,9.7,9.7,0,0,1-1.18-.87c-.29-.25-.57-.51-.83-.77a6.68,6.68,0,0,1-1.57-2.67,7.34,7.34,0,0,1-.32-1.59c0-.24,0-.47,0-.71a6.8,6.8,0,0,1,6.65-6.71h.08c3.65,0,6.6,3.49,6.58,7.13S356.24,296,352.59,296Z"/>
      <path class="cls-1" d="M238.3,272.05l-.12-.09c-.53-.37-1-.75-1.54-1.17s-1.06-.93-1.56-1.44a21.4,21.4,0,0,1-6.19-15.42c0-.49.77-1,.81-1.45l-8.83-5.37v6.63l6,3.26v.23c0,3.36-.86,6.72-1.23,10.07a11.06,11.06,0,0,1-2.51,5.73c-9.36,10.51-9.5,10.19-23.6,9.3-26.66-1.69-53.35-3.25-80-4.83q3.72,9.11,7.85,17.91l27.08,3.16q34.47,4,69,7.75l.49,0,16.24,2.11L241.93,274h0A21.2,21.2,0,0,1,238.3,272.05ZM154,292.16a7.43,7.43,0,0,1-2.16,2.59,6.18,6.18,0,0,1-3.71,1.28h0c-1.79,0-3.47-1.25-4.73-2.53a7,7,0,0,1-1.92-5,6.8,6.8,0,0,1,6.66-6.71h.08c3.65,0,6.6,3.49,6.58,7.13A7.19,7.19,0,0,1,154,292.16Z"/>
      <path class="cls-1" d="M250.31,275.75a21.56,21.56,0,0,1-4.92-.59l-3.25,61c.89,9.39,3.79,14,7.94,18.95,4.15-4.9,7.05-8.92,7.94-18.31l-3.37-61.52A21.5,21.5,0,0,1,250.31,275.75Z"/>
      <path class="cls-1" d="M271.07,248.81,322,220.18c6.4-4.94,9.74-9.72,11.78-14.84q.51-1.28.92-2.59c-6.36-.88-12.71-.31-21.12,4l-13.47,9.56-33.66,23.9A21.38,21.38,0,0,1,271.07,248.81Z"/>
      <path class="cls-1" d="M178.71,220.18l50.89,28.63a21.31,21.31,0,0,1,4.64-8.63l-26.77-19-20.34-14.45c-8.41-4.27-14.76-4.85-21.12-4a33.57,33.57,0,0,0,2.38,5.74A36.17,36.17,0,0,0,178.71,220.18Z"/>
      <path class="cls-1" d="M245.4,233.45a21.21,21.21,0,0,1,3.46-.53c.49,0,1-.06,1.47-.06h.26a21.39,21.39,0,0,1,13.28,4.82L280,226.27l-9.51-.36-6.64-.25-9-15.9-3.44-43h-2.11l-3.44,43-8.95,15.91-14,.5-2.26.08,16.13,11.44A21.55,21.55,0,0,1,245.4,233.45Z"/>
      <path class="cls-1" d="M148.09,283.82a4.71,4.71,0,1,0,4.74,4.74c0-.15,0-.29,0-.44A4.74,4.74,0,0,0,148.09,283.82Z"/>
      <path class="cls-1" d="M352.59,283.82a4.74,4.74,0,0,0-4.73,4.45c0,.1,0,.2,0,.3a4.76,4.76,0,0,0,4.74,4.74l.4,0a4.74,4.74,0,0,0-.4-9.47Z"/>
    </g>
    <g>
      <path class="cls-1" d="M139.8,141.5c-7.61,1.93-15.2,4.1-22.69,6.47q0-22.29,0-44.57c-4.3,1.35-6.45,2.06-10.72,3.52q0,27.48,0,55c11-3.74,22.14-7.13,33.41-10C139.8,147.73,139.8,145.65,139.8,141.5Z"/>
      <path class="cls-1" d="M156.33,148.28c7.33-1.58,11-2.3,18.39-3.57a12.63,12.63,0,0,0,10.88-12.57V98.25c0-6.41-4.46-10.21-10.88-9.1-7.38,1.27-11.06,2-18.39,3.57A13.55,13.55,0,0,0,145.55,106q0,16.94,0,33.89C145.55,146.32,149.94,149.66,156.33,148.28Zm.15-42.62a3,3,0,0,1,2.59-3.14c5.15-1.08,7.73-1.58,12.89-2.5,1.68-.3,2.6.46,2.6,2.14q0,14.81,0,29.61a2.87,2.87,0,0,1-2.6,3.05c-5.17.92-7.75,1.42-12.89,2.5-1.67.35-2.59-.37-2.59-2Q156.48,120.47,156.48,105.66Z"/>
      <path class="cls-1" d="M206.83,102.6q10.3,17.93,20.46,35.95c4.79-.25,7.19-.34,12-.45q0-27.48,0-55c-4.18.1-6.27.18-10.44.38q0,18.74,0,37.47-10.16-18.05-20.46-36c-4.78.45-7.17.71-11.94,1.29q0,27.48,0,55c4.16-.51,6.24-.73,10.4-1.14Q206.83,121.34,206.83,102.6Z"/>
      <path class="cls-1" d="M291.47,129.07q0-16.64,0-33.28a11.4,11.4,0,0,0-11-11.73q-14.48-1-29-1,0,27.48,0,55,14.51,0,29,1C287,139.47,291.47,135.48,291.47,129.07Zm-13.74-.62c-6-.38-9-.52-15.08-.69q0-17.1,0-34.19c6,.17,9.05.31,15.08.69A2.53,2.53,0,0,1,280.36,97q0,14.5,0,29A2.19,2.19,0,0,1,277.73,128.46Z"/>
      <path class="cls-1" d="M311.95,142.62c7.4,1,11.1,1.65,18.46,3,6.42,1.18,10.83-2.29,10.83-8.7q0-16.94,0-33.89a13.05,13.05,0,0,0-10.83-13c-7.37-1.36-11.06-2-18.46-3-6.45-.91-10.92,3-10.92,9.43q0,16.94,0,33.89C301,136.79,305.49,141.71,311.95,142.62Zm2.76-44.78c5.19.77,7.78,1.19,12.95,2.11a2.88,2.88,0,0,1,2.6,3.06q0,14.81,0,29.61c0,1.68-.92,2.42-2.6,2.12-5.17-.92-7.76-1.34-12.95-2.11a2.77,2.77,0,0,1-2.61-3q0-14.81,0-29.61C312.1,98.38,313,97.59,314.71,97.84Z"/>
      <path class="cls-1" d="M362.16,114.92q10.06,21.54,19.9,43.18c4.63,1.45,6.94,2.2,11.54,3.78v-55c-4-1.37-6-2-10-3.31q0,18.74,0,37.47-9.84-21.67-19.89-43.25C359,96.6,356.65,96,352,94.9q0,27.48,0,55c4.09,1,6.14,1.48,10.21,2.54Q362.16,133.65,362.16,114.92Z"/>
    </g>
  </g>
</svg>
