<svg xmlns="http://www.w3.org/2000/svg" width="500" height="500" viewBox="0 0 500 500">
  <defs>
    <style>
      .cls-1 {
        fill: #96ca4f;
      }
    </style>
  </defs>
  <title>Team_Logos</title>
  <g id="Houston">
    <g>
      <polygon class="cls-1" points="251.22 25 268.99 79.7 326.51 79.7 279.98 113.51 297.75 168.21 251.22 134.41 204.69 168.21 222.46 113.51 175.93 79.7 233.45 79.7 251.22 25"/>
      <path d="M379.51,160.56l-2.88.76c-47.4,5.6-69.21,22.31-69.21,22.31-8.22,8-13.53,10.21-13.53,10.21a57.07,57.07,0,0,1-12.2,2.36c-.75-.17-2.77,1.7-2.77,1.7a36.47,36.47,0,0,0-16,18.25,41.69,41.69,0,0,0-5.7-2.16,28,28,0,0,0-14.17-.08,43.24,43.24,0,0,0-6,2.24,36.47,36.47,0,0,0-16-18.25s-2-1.87-2.77-1.7a57.07,57.07,0,0,1-12.2-2.36s-5.31-2.19-13.53-10.21c0,0-21.81-16.71-69.21-22.31l-2.88-.76s-.55.5-.22,1.88l9.61,47.19,5.44-3.94s.44-.56,2.11-.61c0,0,27.37-1.87,35.49,7.72,0,0,3,4.13,3.41,7.65,0,0,.76,2-4.34,5.48,0,0-10,4.55-12,8.62a26,26,0,0,0-.43,15.51s.87,2.93,1.68,5.31c0,0,2.68,8,15.17,8.62,0,0,7.55.38,9.61,3.47a20.89,20.89,0,0,1,3.31,6.34l3.52,15.61a14.44,14.44,0,0,0,3.58,7.37s5.39,5.88,8,8.1c0,0,.32.23.28,1.06v27.94a5.27,5.27,0,0,0,3.69,5.18,2,2,0,0,1,1.43.86,24.53,24.53,0,0,1,4.18,8.91l2.42,85.41s-.74,1.71,4.82,5l.78.16,9,1.28,1.36.74h1.38v8.54s-.14,2.38,4,3.06h7s3.37-.17,3.2-3.13v-1.58h4.16v1.58c-.17,3,3.2,3.13,3.2,3.13h7c4.13-.69,4-3.06,4-3.06V441.4h1.38l1.36-.74,9-1.28.78-.16c5.56-3.27,4.82-5,4.82-5L286,348.83a24.53,24.53,0,0,1,4.18-8.91,2,2,0,0,1,1.43-.86,5.27,5.27,0,0,0,3.69-5.18V305.94c0-.83.28-1.06.28-1.06,2.63-2.22,8-8.1,8-8.1a14.44,14.44,0,0,0,3.58-7.37l3.52-15.61a20.89,20.89,0,0,1,3.31-6.34c2.06-3.09,9.61-3.47,9.61-3.47,12.48-.65,15.17-8.62,15.17-8.62.81-2.39,1.68-5.31,1.68-5.31a26,26,0,0,0-.43-15.51c-2-4.07-12-8.62-12-8.62-5.1-3.47-4.34-5.48-4.34-5.48.43-3.52,3.41-7.65,3.41-7.65,8.12-9.59,35.49-7.72,35.49-7.72,1.67.06,2.11.61,2.11.61l5.44,3.94,9.61-47.19C380.06,161.06,379.51,160.56,379.51,160.56ZM184.07,256.68a13.78,13.78,0,0,1-9.54,2.3,10.66,10.66,0,0,1-8.42-7.46,22.18,22.18,0,0,1-1.18-9.71c.84-5.05,4.69-5.87,9.6-6.51,7.91-1,9.6,2.27,9.6,2.27,2.86,3.72,2.86,13.05,2.86,13.05A8.56,8.56,0,0,1,184.07,256.68ZM255,418.43c.48,4-2.69,7-2.69,7v14.08h-4.57V425.39s-3.17-2.93-2.69-7l-.34-86a8.33,8.33,0,0,1,2.75-5.61h5.12a8.33,8.33,0,0,1,2.75,5.61Zm2.26-191.61-3.36,6.81a28.09,28.09,0,0,0-1.12,2.78v71h-5.49v-71a28.09,28.09,0,0,0-1.12-2.78l-3.36-6.81a3.73,3.73,0,0,1,.41-3.86c7.77-4.55,13.6-.05,13.6-.05A3.7,3.7,0,0,1,257.23,226.82Zm68.24,8.48c4.91.64,8.76,1.46,9.6,6.51a22.18,22.18,0,0,1-1.18,9.71,10.66,10.66,0,0,1-8.42,7.46,13.78,13.78,0,0,1-9.54-2.3,8.56,8.56,0,0,1-2.92-6.06s0-9.33,2.86-13.05C315.87,237.57,317.78,234.3,325.47,235.3Z"/>
      <path class="cls-1" d="M113.69,159.4a16.72,16.72,0,0,1-4.13-1.14A37.9,37.9,0,0,1,93.05,128s-3-21.4,10.26-39.49V86.35S70,112.43,70,146.45c0,0,.82,26.24,8.95,37.81,0,0,12,17.47,45.51,24.37Z"/>
      <path class="cls-1" d="M396.68,86.35v2.13C409.95,106.56,406.95,128,406.95,128a37.9,37.9,0,0,1-16.5,30.3,16.56,16.56,0,0,1-4,1.11l-10.77,49.22c33.41-6.92,45.32-24.33,45.32-24.33,8.13-11.57,8.95-37.81,8.95-37.81C430,112.43,396.68,86.35,396.68,86.35Z"/>
    </g>
  </g>
</svg>
